<svg width="36" height="32" viewBox="0 0 36 32" fill="none" xmlns="http://www.w3.org/2000/svg">
<rect y="0.152542" width="36" height="31.7288" rx="10" fill="#F2F7FF"/>
<path fill-rule="evenodd" clip-rule="evenodd" d="M17 25.1525C17 25.4178 16.8946 25.6721 16.7071 25.8596C16.5196 26.0472 16.2652 26.1525 16 26.1525C15.7348 26.1525 15.4804 26.0472 15.2929 25.8596C15.1054 25.6721 15 25.4178 15 25.1525V14.1525C15 13.8873 15.1054 13.633 15.2929 13.4454C15.4804 13.2579 15.7348 13.1525 16 13.1525C16.2652 13.1525 16.5196 13.2579 16.7071 13.4454C16.8946 13.633 17 13.8873 17 14.1525V25.1525ZM13 25.1525C13 25.4178 12.8946 25.6721 12.7071 25.8596C12.5196 26.0472 12.2652 26.1525 12 26.1525C11.7348 26.1525 11.4804 26.0472 11.2929 25.8596C11.1054 25.6721 11 25.4178 11 25.1525V18.1525C11 17.8873 11.1054 17.633 11.2929 17.4454C11.4804 17.2579 11.7348 17.1525 12 17.1525C12.2652 17.1525 12.5196 17.2579 12.7071 17.4454C12.8946 17.633 13 17.8873 13 18.1525V25.1525ZM19 25.1525V16.1525C19 15.8873 19.1054 15.633 19.2929 15.4454C19.4804 15.2579 19.7348 15.1525 20 15.1525C20.2652 15.1525 20.5196 15.2579 20.7071 15.4454C20.8946 15.633 21 15.8873 21 16.1525V25.1525C21 25.4178 20.8946 25.6721 20.7071 25.8596C20.5196 26.0472 20.2652 26.1525 20 26.1525C19.7348 26.1525 19.4804 26.0472 19.2929 25.8596C19.1054 25.6721 19 25.4178 19 25.1525ZM23 11.1525C23 10.8873 23.1054 10.633 23.2929 10.4454C23.4804 10.2579 23.7348 10.1525 24 10.1525C24.2652 10.1525 24.5196 10.2579 24.7071 10.4454C24.8946 10.633 25 10.8873 25 11.1525V25.1525C25 25.4178 24.8946 25.6721 24.7071 25.8596C24.5196 26.0472 24.2652 26.1525 24 26.1525C23.7348 26.1525 23.4804 26.0472 23.2929 25.8596C23.1054 25.6721 23 25.4178 23 25.1525V11.1525Z" fill="#6B779A"/>
</svg>
