<svg width="48" height="48" viewBox="0 0 48 48" fill="none" xmlns="http://www.w3.org/2000/svg">
<rect width="48" height="48" rx="12" fill="white" fill-opacity="0.5"/>
<path d="M31.5 25.4395V23.5H30V25.75C30 25.9489 30.0791 26.1396 30.2197 26.2803L32.25 28.3105V29.5H15.75V28.3105L17.7802 26.2803C17.9209 26.1396 18 25.9489 18 25.75V22.75C17.9979 21.6961 18.274 20.6603 18.8003 19.7472C19.3267 18.8342 20.0846 18.0762 20.9977 17.5498C21.9107 17.0234 22.9465 16.7473 24.0004 16.7494C25.0543 16.7514 26.089 17.0316 27 17.5615V15.8852C26.2861 15.5691 25.5267 15.3677 24.75 15.2883V13.75H23.25V15.2875C21.4009 15.4757 19.6873 16.3428 18.4405 17.7212C17.1937 19.0996 16.5023 20.8914 16.5 22.75V25.4395L14.4697 27.4697C14.3291 27.6104 14.25 27.8011 14.25 28V30.25C14.25 30.4489 14.329 30.6397 14.4697 30.7803C14.6103 30.921 14.8011 31 15 31H20.25V31.75C20.25 32.7446 20.6451 33.6984 21.3483 34.4016C22.0516 35.1049 23.0054 35.5 24 35.5C24.9946 35.5 25.9484 35.1049 26.6517 34.4016C27.3549 33.6984 27.75 32.7446 27.75 31.75V31H33C33.1989 31 33.3897 30.921 33.5303 30.7803C33.671 30.6397 33.75 30.4489 33.75 30.25V28C33.75 27.8011 33.6709 27.6104 33.5303 27.4697L31.5 25.4395ZM26.25 31.75C26.25 32.3467 26.0129 32.919 25.591 33.341C25.169 33.7629 24.5967 34 24 34C23.4033 34 22.831 33.7629 22.409 33.341C21.9871 32.919 21.75 32.3467 21.75 31.75V31H26.25V31.75Z" fill="black"/>
<path d="M31.5 22C33.1569 22 34.5 20.6569 34.5 19C34.5 17.3431 33.1569 16 31.5 16C29.8431 16 28.5 17.3431 28.5 19C28.5 20.6569 29.8431 22 31.5 22Z" fill="#F35540"/>
</svg>
